<svg width="1080" height="1920" viewBox="0 0 1080 1920" fill="none" xmlns="http://www.w3.org/2000/svg">
<g clip-path="url(#clip0_1572_263)">
<rect width="1080" height="1920" fill="url(#paint0_linear_1572_263)"/>
<path fill-rule="evenodd" clip-rule="evenodd" d="M208.705 1057.2L184.405 1057.18C184.18 1057.18 183.96 1057.12 183.765 1057.01C183.57 1056.9 183.407 1056.75 183.293 1056.56L161.89 1021.1C161.727 1020.83 161.762 1020.58 161.995 1020.35L212.408 971.525C212.618 971.323 212.869 971.222 213.16 971.222H265.192C265.554 971.222 265.764 971.396 265.823 971.744C267.171 979.791 274.935 985.993 282.595 987.433C294.867 989.742 306.729 981.931 308.444 969.907C312.208 943.542 272.712 936.254 265.604 962.231C265.54 962.467 265.382 962.585 265.131 962.585H209.58C209.218 962.585 208.909 962.709 208.652 962.956L157.312 1012.37C157.119 1012.55 156.956 1012.53 156.822 1012.31L127.112 962.804C126.966 962.563 126.963 962.324 127.103 962.088L147.464 928.038C159.381 908.406 171.213 888.722 182.96 868.988C183.767 867.636 184.458 867.74 185.427 867.886C185.763 867.936 186.131 867.992 186.549 867.994C196.476 868.028 206.403 868.025 216.329 867.986C216.644 867.986 216.802 868.137 216.802 868.441V900.595C216.802 900.937 216.676 901.229 216.425 901.471L178.093 938.63C177.901 938.821 177.688 938.843 177.454 938.697C153.276 923.8 129.344 955.238 151.456 972.511C163.501 981.923 181.122 975.511 185.507 961.995C187.177 956.844 186.602 951.505 183.783 945.977C183.649 945.713 183.69 945.477 183.906 945.27L225.669 905.069C225.938 904.816 226.069 904.51 226.063 904.15L225.774 868.222C225.769 867.941 225.912 867.803 226.203 867.809L296.749 867.986C297.035 867.991 297.248 868.112 297.388 868.348L308.934 887.779C309.11 888.065 309.025 888.208 308.681 888.208L282.612 888.36C282.338 888.36 282.107 888.453 281.921 888.638L256.132 913.461C255.893 913.686 255.63 913.717 255.344 913.554C246.696 908.459 238.391 908.599 230.431 913.975C216.986 923.067 218.92 942.919 233.443 949.752C253.226 959.055 272.003 939.017 262.05 920.547C261.915 920.295 261.953 920.067 262.163 919.865L285.553 897.359C285.758 897.162 286.003 897.064 286.289 897.064C294.891 897.081 303.449 897.081 311.963 897.064C312.636 897.064 313.129 896.916 313.721 896.738L313.832 896.705C313.882 896.69 313.933 896.675 313.985 896.66C314.184 896.598 314.333 896.654 314.432 896.828L353.561 962.063C353.736 962.349 353.736 962.638 353.561 962.931L323.045 1013.69C322.917 1013.91 322.721 1014.02 322.459 1014.02L250.232 1013.97C249.929 1013.97 249.73 1013.83 249.637 1013.55C248.359 1009.69 247.034 1006.97 245.663 1005.4C231.552 989.203 204.013 999.5 206.84 1020.99C208.019 1029.96 213.511 1035.96 223.315 1039C223.641 1039.1 223.805 1039.32 223.805 1039.65V1056.53C223.805 1056.86 223.63 1057.04 223.28 1057.04L208.705 1057.2ZM243.161 943.374C250.239 943.374 255.976 937.851 255.976 931.038C255.976 924.226 250.239 918.703 243.161 918.703C236.083 918.703 230.345 924.226 230.345 931.038C230.345 937.851 236.083 943.374 243.161 943.374ZM177.447 955.895C177.447 962.708 171.709 968.231 164.632 968.231C157.554 968.231 151.816 962.708 151.816 955.895C151.816 949.082 157.554 943.559 164.632 943.559C171.709 943.559 177.447 949.082 177.447 955.895ZM286.901 979.268C293.969 979.268 299.699 973.753 299.699 966.949C299.699 960.146 293.969 954.63 286.901 954.63C279.833 954.63 274.104 960.146 274.104 966.949C274.104 973.753 279.833 979.268 286.901 979.268ZM241.155 1018.4C241.155 1025.21 235.422 1030.73 228.349 1030.73C221.276 1030.73 215.542 1025.21 215.542 1018.4C215.542 1011.59 221.276 1006.07 228.349 1006.07C235.422 1006.07 241.155 1011.59 241.155 1018.4ZM282.096 1057.01C266.754 1057.2 251.408 1057.25 236.06 1057.14C235.179 1057.14 234.251 1057.06 233.277 1056.9C232.944 1056.84 232.778 1056.65 232.778 1056.33V1039.67C232.778 1039.32 232.947 1039.11 233.285 1039.01C241.741 1036.64 247.227 1031.38 249.742 1023.24C249.824 1022.97 250.011 1022.83 250.302 1022.83H317.023C317.362 1022.83 317.446 1022.98 317.277 1023.26L297.275 1056.66C297.117 1056.93 296.881 1057.08 296.566 1057.09C293.564 1057.26 290.171 1057.17 287.127 1057.09C285.263 1057.04 283.529 1056.99 282.096 1057.01ZM506.758 932.782C503.45 938.057 500.718 946.887 511.013 947.157C511.386 947.168 511.57 947.354 511.564 947.713L511.512 949.988C511.506 950.381 511.296 950.578 510.881 950.578H486.424C486.149 950.578 485.951 950.463 485.828 950.232C484.529 947.84 485.895 947.48 487.482 947.063C487.722 947 487.967 946.935 488.209 946.862C492.753 945.497 496.132 939.607 498.057 935.335C505.953 917.792 512.863 902.218 518.786 888.613C520.397 884.916 521.497 880.942 522.086 876.69C522.127 876.409 522.293 876.238 522.585 876.176L529.29 874.786C529.417 874.76 529.548 874.777 529.663 874.833C529.778 874.89 529.869 874.983 529.921 875.097C539.153 895.758 548.382 916.405 557.609 937.037C559.841 942.025 562.196 946.18 568.341 947.241C568.738 947.314 568.927 947.545 568.91 947.932L568.805 950.022C568.787 950.404 568.58 950.595 568.183 950.595L538.21 950.687C537.79 950.687 537.589 950.488 537.606 950.089L537.676 947.865C537.688 947.466 537.901 947.244 538.315 947.199C547.498 946.222 543.865 938.006 541.467 933.153C540.416 931.021 538.762 930.6 536.276 930.591C528.193 930.552 520.108 930.549 512.019 930.583L511.743 930.584C509.377 930.588 508.133 930.591 506.758 932.782ZM510.505 923.85C510.488 923.892 510.481 923.936 510.486 923.98C510.491 924.025 510.507 924.067 510.533 924.104C510.559 924.14 510.594 924.17 510.635 924.191C510.676 924.211 510.722 924.222 510.768 924.221L537.134 924.272C537.18 924.271 537.226 924.26 537.267 924.238C537.307 924.217 537.342 924.186 537.367 924.148C537.392 924.111 537.407 924.068 537.411 924.023C537.415 923.978 537.406 923.934 537.388 923.893L524.266 893.449C524.244 893.4 524.209 893.359 524.163 893.329C524.117 893.3 524.063 893.284 524.008 893.284C523.952 893.284 523.899 893.3 523.853 893.329C523.807 893.359 523.771 893.4 523.749 893.449L510.505 923.85ZM840.082 883.776C821.489 884.063 815.992 899.348 817.848 914.506C819.292 926.277 826.4 935.496 837.57 940.239C848.074 944.697 859.305 943.273 869.626 938.015C869.993 937.83 870.297 937.9 870.536 938.226L871.761 939.885C871.954 940.144 871.969 940.411 871.805 940.686C868.969 945.641 859.401 950.089 854.105 951.876C842.857 955.659 827.792 950.494 818.819 943.854C801.539 931.072 801.216 904.884 814.407 889.228C823.704 878.19 838.655 874.213 853.151 875.645C859.27 876.243 864.837 877.036 869.354 880.237C871.516 881.763 868.496 893.989 862.71 890.711C855.462 886.616 849.265 883.642 840.082 883.776ZM719.762 875.224C710.343 876.073 700.912 876.345 691.47 876.042C686.448 875.889 681.485 875.905 676.531 875.92C668.359 875.945 660.212 875.97 651.868 875.241C651.639 875.223 651.411 875.287 651.229 875.421C651.046 875.554 650.921 875.749 650.879 875.966L647.99 890.703C647.903 891.136 648.089 891.349 648.55 891.343L650.966 891.301C651.316 891.296 651.57 891.138 651.728 890.829C656.008 882.521 667.861 882.218 676.054 883.305C676.37 883.344 676.603 883.496 676.755 883.76C677.227 884.58 677.464 885.577 677.464 886.751V936.979C677.464 945.354 672.475 946.091 665.412 947.135C665.192 947.167 664.969 947.2 664.745 947.234C664.354 947.29 664.202 947.503 664.289 947.874L664.841 950.157C664.934 950.528 665.179 950.713 665.576 950.713L703.366 950.57C703.739 950.57 703.944 950.393 703.979 950.039L704.215 947.739C704.25 947.413 704.101 947.228 703.769 947.183C696.363 946.172 691.26 945.472 691.251 936.987C691.245 920.118 691.283 903.249 691.365 886.381C691.381 882.337 696.806 882.712 700.453 882.964C700.598 882.974 700.741 882.984 700.88 882.993C706.64 883.052 712.68 884.535 714.737 890.408C714.836 890.683 715.017 890.891 715.28 891.032C716.969 891.925 718.02 890.888 718.361 889.245C719.219 885.055 720.348 880.915 721.749 876.825C721.815 876.636 721.78 876.398 721.648 876.146C721.516 875.895 721.293 875.643 721.013 875.427C720.768 875.241 720.351 875.174 719.762 875.224ZM745.219 950.41C739.786 950.241 734.312 950.421 728.797 950.949C728.453 950.983 728.252 950.834 728.193 950.503L727.755 947.975C727.685 947.559 727.86 947.298 728.281 947.191C736.387 945.059 740.142 943.214 739.897 934.013C739.593 922.823 739.561 911.633 739.801 900.443C739.829 899.836 739.865 899.209 739.902 898.566L739.903 898.56C740.341 890.946 740.897 881.284 730.487 879.808C730.119 879.757 729.956 879.552 729.996 879.193L730.303 876.572C730.344 876.185 730.565 876.002 730.968 876.025C747.46 876.8 765.811 876.732 786.02 875.822C788.039 875.733 788.827 876.777 788.383 878.957C787.631 882.636 786.682 886.386 785.539 890.206C785.461 890.465 785.317 890.702 785.12 890.896C784.923 891.09 784.679 891.235 784.409 891.318C783.254 891.672 782.492 891.107 782.081 890.046C780.353 885.512 776.867 882.985 771.62 882.462C771.341 882.434 771.041 882.403 770.723 882.37L770.722 882.37C764.885 881.761 753.057 880.526 752.966 888.596C752.958 889.443 752.911 890.635 752.857 892.029C752.633 897.752 752.277 906.881 753.868 909.51C754.014 909.757 754.235 909.892 754.533 909.914C764.197 910.782 773.887 909.956 781.433 904.825C781.56 904.737 781.707 904.683 781.862 904.666C782.017 904.649 782.174 904.671 782.319 904.729C782.463 904.787 782.59 904.88 782.688 904.998C782.786 905.117 782.851 905.257 782.877 905.406C783.2 907.248 779.147 914.987 777.179 918.745L777.179 918.746L777.178 918.747L777.171 918.761L777.153 918.795C776.837 919.398 776.577 919.895 776.4 920.245C775.195 922.611 773.271 920.82 771.624 919.288C770.961 918.671 770.342 918.096 769.834 917.852C767.226 916.596 753.272 912.4 753.124 918.189C752.943 924.722 752.919 931.255 753.054 937.788C753.194 944.891 762.009 945.346 767.41 944.891C776.549 944.132 784.768 941.765 790.336 934.308C791.727 932.429 794.765 932.825 794.459 935.395C793.636 942.464 789.583 951.202 780.864 950.696C769.023 950.017 757.142 949.921 745.219 950.41ZM430.238 875.98C429.781 875.979 429.322 875.977 428.86 875.974C428.06 876.003 427.265 876.033 426.475 876.062C418.004 876.376 410.041 876.672 401.522 875.839C400.168 875.705 399.319 876.533 398.975 878.325C398.794 879.263 399.188 879.811 400.157 879.968C405.911 880.929 408.785 884.521 408.779 890.745C408.773 906.67 408.744 922.593 408.692 938.512C408.666 944.407 404.963 945.584 400.111 947.126L400.106 947.128L400.098 947.13C399.877 947.2 399.655 947.271 399.43 947.343C399.138 947.438 399.013 947.635 399.054 947.933L399.351 950.081C399.398 950.413 399.596 950.579 399.947 950.579H433.797C434.165 950.579 434.372 950.402 434.419 950.048L434.734 947.764C434.775 947.444 434.632 947.259 434.305 947.208C426.637 946.071 422.181 945.135 422.093 936.482C422.029 930.145 422.035 923.815 422.111 917.489C422.117 917.209 422.266 917.057 422.557 917.034C433.823 916.141 437.712 920.937 444.513 929.323L444.514 929.324C444.9 929.799 445.295 930.287 445.702 930.786C449.029 934.864 452.375 938.928 455.743 942.978C461.257 949.626 466.168 952.694 474.904 952.34L480.165 951.211C480.568 951.121 480.79 950.879 480.831 950.486L480.979 948.978C481.014 948.641 480.86 948.438 480.516 948.371C476.903 947.68 473.702 945.663 470.913 942.321C464.768 934.968 458.585 927.646 452.364 920.354C449.773 917.327 446.799 915.622 443.444 915.24C442.119 915.094 442.113 914.9 443.426 914.658C451.436 913.184 458.176 909.384 460.793 901.792C463.358 894.368 461.021 885.395 454.167 880.904C446.759 876.046 438.885 876.015 430.238 875.98ZM422.083 892.185L422.083 892.179L422.083 892.173C422.093 890.596 422.102 889.019 422.111 887.442C422.137 882.193 428.808 881.308 432.79 881.788C441.702 882.856 446.683 887.858 447.733 896.795C449.562 912.451 433.263 912.341 422.452 911.734C422.161 911.718 422.015 911.566 422.015 911.279C422.008 904.916 422.046 898.547 422.083 892.185ZM599.792 938.091C599.8 948.228 620.039 944.605 625.203 942.818C630.24 941.071 634.334 938.119 637.485 933.962C638.022 933.255 638.757 932.968 639.691 933.103C640.15 933.17 640.566 933.401 640.855 933.749C641.144 934.098 641.285 934.538 641.249 934.982C640.733 941.563 636.452 951.118 628.075 950.713C610.544 949.865 593.019 949.899 575.5 950.815C575.127 950.837 574.917 950.668 574.87 950.309L574.563 947.849C574.517 947.461 574.689 947.219 575.08 947.124C581.26 945.59 586.39 943.804 586.407 937.097C586.431 921.436 586.433 905.774 586.416 890.113C586.41 883.94 583.364 880.53 577.277 879.884C576.869 879.839 576.685 879.62 576.726 879.227L576.997 876.792C577.044 876.41 577.265 876.219 577.662 876.219H608.169C608.624 876.219 608.866 876.435 608.895 876.867L609.062 879.294C609.079 879.62 608.922 879.805 608.589 879.85C599.504 881.035 599.577 886.593 599.675 894.067V894.069L599.675 894.075C599.684 894.729 599.692 895.397 599.695 896.079C599.754 910.089 599.786 924.093 599.792 938.091ZM910.977 910.867C909.011 910.934 907.418 910.679 906.198 910.1C905.788 909.906 905.444 909.605 905.204 909.232C904.964 908.86 904.838 908.43 904.841 907.994C904.847 902.511 904.844 897.065 904.832 891.655C904.824 884.931 906.329 880.449 913.901 879.943C914.298 879.915 914.47 879.713 914.418 879.337L914.024 876.75C913.971 876.39 913.755 876.211 913.376 876.211C903.799 876.233 894.202 876.233 884.585 876.211C882.169 876.202 881.425 877.466 882.23 879.589C882.324 879.825 882.502 879.957 882.764 879.985C888.32 880.558 891.22 883.51 891.465 888.841C892.006 900.421 891.827 911.814 891.65 923.141V923.144V923.148V923.152C891.586 927.226 891.522 931.291 891.492 935.353C891.439 942.439 890.564 945.768 882.537 947.149C882.192 947.211 882.029 947.408 882.046 947.739L882.169 950.006C882.187 950.388 882.394 950.579 882.791 950.579H913.507C913.881 950.579 914.082 950.399 914.111 950.04L914.304 947.874C914.339 947.481 914.149 947.259 913.735 947.208C907.887 946.534 904.94 943.304 904.894 937.519C904.847 931.57 904.829 925.601 904.841 919.613C904.844 919.131 905.03 918.666 905.363 918.306C905.697 917.946 906.155 917.716 906.653 917.658C913.053 916.928 919.883 917.051 926.585 917.171C929.629 917.226 932.646 917.28 935.584 917.254C936.297 917.247 937.031 917.173 937.751 917.101C940.744 916.799 943.481 916.524 943.34 921.231C943.2 925.803 943.118 930.384 943.095 934.974C943.068 941.765 942.412 945.717 934.963 946.989C934.052 947.147 933.626 947.666 933.684 948.548L933.798 950.132C933.816 950.43 933.979 950.579 934.288 950.579H964.97C965.402 950.579 965.644 950.371 965.697 949.955L965.951 947.748C965.997 947.388 965.831 947.197 965.452 947.175C957.582 946.737 956.374 941.361 956.33 934.982C956.231 919.945 956.24 904.896 956.356 889.835C956.4 884.013 959.219 880.381 965.46 879.876C965.88 879.842 966.056 879.623 965.986 879.219L965.557 876.666C965.504 876.368 965.323 876.219 965.014 876.219H934.516C934.166 876.219 933.962 876.387 933.903 876.725L933.483 879.328C933.425 879.688 933.582 879.881 933.956 879.91C942.246 880.575 943.068 885.555 943.165 892.709C943.235 897.309 943.311 901.91 943.392 906.511C943.48 911.212 940.022 911.372 936.057 910.926C929.18 910.143 921.872 910.436 914.829 910.719C913.535 910.771 912.25 910.822 910.977 910.867ZM413.345 1037.07C413.517 1040.24 413.923 1047.79 409.042 1046.16C406.203 1045.22 406.55 1040.19 406.823 1036.24L406.843 1035.95C406.856 1035.76 406.868 1035.58 406.88 1035.39C406.903 1035.02 406.722 1034.84 406.337 1034.84L399.378 1034.83C399.127 1034.83 399.005 1034.95 399.01 1035.19C399.019 1035.92 399.017 1036.64 399.016 1037.36V1037.36C399.007 1042.87 398.998 1047.94 403.203 1051.14C410.557 1056.74 420.457 1051.98 420.965 1043.05C421.046 1041.52 421.038 1038.39 420.938 1033.65C420.933 1033.37 420.845 1033.12 420.676 1032.89C416.492 1027.35 412.31 1021.81 408.132 1016.27C407.338 1015.21 406.895 1014.11 406.801 1012.96C406.635 1010.94 406.285 1005.09 408.99 1004.53C413.972 1003.49 413.58 1009.92 413.352 1013.67C413.317 1014.25 413.286 1014.76 413.279 1015.17C413.273 1015.5 413.442 1015.67 413.787 1015.67H420.527C420.883 1015.67 421.058 1015.5 421.052 1015.15C421.031 1014.32 421.031 1013.48 421.032 1012.62V1012.62C421.034 1007.17 421.036 1001.53 415.406 998.303C413.159 997.016 410.711 996.643 408.062 997.182C398.558 999.124 398.84 1007.89 399.079 1015.32L399.08 1015.33C399.096 1015.83 399.112 1016.32 399.124 1016.81C399.13 1017.07 399.215 1017.31 399.378 1017.52L412.999 1035.35C413.191 1035.6 413.294 1035.89 413.305 1036.21C413.311 1036.43 413.326 1036.72 413.345 1037.05L413.345 1037.07L413.345 1037.07ZM739.177 1053.03V1046.31C739.177 1046.26 739.168 1046.22 739.15 1046.17C739.132 1046.13 739.106 1046.09 739.072 1046.06C739.039 1046.03 738.999 1046 738.956 1045.99C738.912 1045.97 738.866 1045.96 738.819 1045.96L728.375 1046.08C728.28 1046.08 728.189 1046.04 728.122 1045.98C728.054 1045.91 728.016 1045.83 728.016 1045.73L728.025 998.11C728.025 998.086 728.023 998.062 728.018 998.039C728.013 998.018 728.006 997.997 727.998 997.977C727.98 997.935 727.953 997.897 727.92 997.865C727.887 997.833 727.847 997.808 727.804 997.79C727.76 997.773 727.713 997.764 727.666 997.764H720.935C720.916 997.764 720.897 997.766 720.879 997.768C720.868 997.77 720.857 997.772 720.847 997.775C720.83 997.779 720.813 997.784 720.797 997.79C720.754 997.808 720.714 997.833 720.681 997.865C720.648 997.897 720.621 997.935 720.603 997.977C720.595 997.995 720.589 998.014 720.585 998.032C720.579 998.058 720.576 998.083 720.576 998.11V1053.03C720.576 1053.12 720.614 1053.21 720.681 1053.27C720.748 1053.34 720.84 1053.38 720.935 1053.38H738.819C738.914 1053.38 739.005 1053.34 739.072 1053.27C739.14 1053.21 739.177 1053.12 739.177 1053.03ZM535.28 1053.27L528.023 1053.17C527.696 1053.16 527.533 1053 527.533 1052.68L527.594 1044.74L527.638 998.354C527.638 998.101 527.769 997.975 528.031 997.975H534.781C535.072 997.975 535.218 998.115 535.218 998.396V1016.51C535.218 1016.79 535.364 1016.93 535.656 1016.93H541.678C541.9 1016.93 542.011 1016.83 542.011 1016.61L542.107 998.447C542.107 998.132 542.274 997.975 542.606 997.975H549.224C549.516 997.975 549.662 998.115 549.662 998.396V1052.74C549.662 1053.02 549.516 1053.17 549.224 1053.17H542.519C542.274 1053.17 542.151 1053.05 542.151 1052.82L542.09 1024.56C542.09 1024.25 541.929 1024.1 541.608 1024.1H535.7C535.408 1024.1 535.262 1024.24 535.262 1024.52L535.28 1053.27ZM611 1050.03C612.935 1048.15 614.014 1045.6 614 1042.96L613.81 1008.09C613.803 1006.78 613.527 1005.48 612.999 1004.27C612.472 1003.06 611.702 1001.97 610.733 1001.05C609.765 1000.12 608.617 999.393 607.356 998.898C606.095 998.402 604.745 998.151 603.383 998.158L602.542 998.162C599.791 998.176 597.158 999.241 595.223 1001.12C593.288 1003.01 592.209 1005.55 592.224 1008.2L592.413 1043.07C592.42 1044.38 592.696 1045.67 593.224 1046.88C593.751 1048.09 594.521 1049.19 595.49 1050.11C596.458 1051.03 597.606 1051.76 598.867 1052.26C600.128 1052.75 601.478 1053 602.841 1053L603.681 1052.99C606.432 1052.98 609.065 1051.91 611 1050.03ZM605.309 1006.33C605.824 1006.83 606.114 1007.5 606.114 1008.2V1043.09C606.114 1043.79 605.824 1044.46 605.309 1044.96C604.793 1045.45 604.094 1045.73 603.365 1045.73H602.875C602.146 1045.73 601.447 1045.45 600.932 1044.96C600.416 1044.46 600.126 1043.79 600.126 1043.09V1008.2C600.126 1007.5 600.416 1006.83 600.932 1006.33C601.447 1005.84 602.146 1005.56 602.875 1005.56H603.365C604.094 1005.56 604.793 1005.84 605.309 1006.33ZM677.843 1043.17C677.843 1045.79 676.764 1048.29 674.843 1050.14C672.922 1051.99 670.317 1053.03 667.601 1053.03H666.813C664.097 1053.03 661.492 1051.99 659.571 1050.14C657.65 1048.29 656.571 1045.79 656.571 1043.17V1007.98C656.571 1005.37 657.65 1002.86 659.571 1001.01C661.492 999.165 664.097 998.126 666.813 998.126H667.601C670.317 998.126 672.922 999.165 674.843 1001.01C676.764 1002.86 677.843 1005.37 677.843 1007.98V1043.17ZM670.454 1008.3C670.454 1007.56 670.152 1006.86 669.614 1006.34C669.075 1005.82 668.345 1005.53 667.583 1005.53H666.988C666.227 1005.53 665.496 1005.82 664.958 1006.34C664.419 1006.86 664.117 1007.56 664.117 1008.3V1042.98C664.117 1043.71 664.419 1044.41 664.958 1044.93C665.496 1045.45 666.227 1045.74 666.988 1045.74H667.583C668.345 1045.74 669.075 1045.45 669.614 1044.93C670.152 1044.41 670.454 1043.71 670.454 1042.98V1008.3ZM471.333 1007.93C471.35 1007.41 471.576 1006.93 471.963 1006.58C473.522 1005.17 474.992 1005.06 476.375 1006.27C477.665 1007.39 477.563 1009.02 477.465 1010.58C477.454 1010.76 477.443 1010.94 477.434 1011.11C477.417 1011.38 477.545 1011.5 477.82 1011.5L484.665 1011.44C484.916 1011.43 485.05 1011.31 485.068 1011.07C486.083 994.571 463.63 994.47 463.639 1008.93L463.656 1039.07C463.656 1044.76 464.199 1049.22 469.556 1051.72C472.836 1053.24 476.069 1053.22 479.255 1051.66C484.411 1049.13 485.313 1043.7 485.103 1038.2C485.091 1037.94 484.948 1037.8 484.674 1037.8L477.977 1037.76C477.645 1037.76 477.472 1037.92 477.461 1038.23C477.446 1038.63 477.461 1039.1 477.477 1039.62V1039.62V1039.62C477.555 1042.1 477.665 1045.55 474.598 1045.82C471.937 1046.05 471.351 1043.84 471.289 1041.66C470.974 1030.44 470.989 1019.19 471.333 1007.93Z" fill="url(#paint1_linear_1572_263)"/>
</g>
<defs>
<linearGradient id="paint0_linear_1572_263" x1="-1.60933e-05" y1="1920" x2="1411.65" y2="1633.37" gradientUnits="userSpaceOnUse">
<stop stop-color="#1E1E1E"/>
<stop offset="1" stop-color="#3D3D3D"/>
</linearGradient>
<linearGradient id="paint1_linear_1572_263" x1="546.415" y1="1058.06" x2="546.415" y2="867.586" gradientUnits="userSpaceOnUse">
<stop stop-color="#EBB844"/>
<stop offset="0.295" stop-color="#DDA323"/>
<stop offset="1" stop-color="#FDED97"/>
</linearGradient>
<clipPath id="clip0_1572_263">
<rect width="1080" height="1920" fill="white"/>
</clipPath>
</defs>
</svg>
